M48
INCH,TZ
T10C0.025
T11C0.030
T12C0.039
T13C0.040
T14C0.045
T15C0.051
T16C0.079
T17C0.091
%
T10
X043550Y-27575
X046200Y-27925
T11
X043700Y-25575
X044725Y-24825
X045550Y-28200
X045600Y-26075
X048700Y-29325
X050950Y-27150
X051200Y-27850
T12
X043741Y-31525
X044725Y-31525
X045709Y-31525
X049166Y-31525
X050150Y-31525
X051134Y-31525
T13
X048975Y-20825
X049975Y-20825
X050975Y-20825
X054225Y-27675
X054225Y-28675
X054225Y-29675
T14
X049804Y-22354
X054046Y-26596
T15
X056550Y-25250
X056550Y-27250
X056550Y-29700
X056550Y-31700
T16
X042717Y-30186
X046733Y-30186
X048142Y-30186
X052158Y-30186
T17
X045000Y-19050
X055000Y-19050
M30

