M48
;DRILL file {Pcbnew (2013-07-07 BZR 4022)-stable} date 26/09/2015 15:02:16
;FORMAT={2:4/ absolute / inch / suppress leading zeros}
FMAT,2
INCH,TZ
T1C0.025
T2C0.030
T3C0.039
T4C0.040
T5C0.045
T6C0.051
%
G90
G05
M72
T1
X43550Y-27575
X46200Y-27925
T2
X43700Y-25575
X44725Y-24825
X45550Y-28200
X45600Y-26075
X48700Y-29325
X50950Y-27150
X51200Y-27850
T3
X43741Y-31525
X44725Y-31525
X45709Y-31525
X49166Y-31525
X50150Y-31525
X51134Y-31525
T4
X48975Y-20825
X49975Y-20825
X50975Y-20825
X54225Y-27675
X54225Y-28675
X54225Y-29675
T5
X49804Y-22354
X54046Y-26596
T6
X56550Y-25250
X56550Y-27250
X56550Y-29700
X56550Y-31700
T0
M30
