G04 (created by PCBNEW (2013-07-07 BZR 4022)-stable) date 26/09/2015 15:02:13*
%MOIN*%
G04 Gerber Fmt 3.4, Leading zero omitted, Abs format*
%FSLAX34Y34*%
G01*
G70*
G90*
G04 APERTURE LIST*
%ADD10C,0.00393701*%
%ADD11C,0.005*%
%ADD12C,0.0039*%
%ADD13C,0.012*%
%ADD14C,0.006*%
%ADD15C,0.00590551*%
%ADD16C,0.015*%
%ADD17C,0.0001*%
%ADD18C,0.0043*%
%ADD19C,0.008*%
%ADD20C,0.0045*%
%ADD21R,0.045X0.02*%
%ADD22R,0.055X0.035*%
%ADD23R,0.035X0.055*%
%ADD24C,0.07*%
%ADD25R,0.06X0.06*%
%ADD26C,0.06*%
%ADD27C,0.0905512*%
%ADD28R,0.1X0.1*%
%ADD29C,0.1*%
%ADD30C,0.0787402*%
%ADD31O,0.0787402X0.0866142*%
%ADD32R,0.07X0.07*%
%ADD33R,0.0275591X0.023622*%
G04 APERTURE END LIST*
G54D10*
G54D11*
X51950Y-26900D02*
X51950Y-28900D01*
X51950Y-28900D02*
X50150Y-28900D01*
X50150Y-28900D02*
X50150Y-26900D01*
X50150Y-26900D02*
X51950Y-26900D01*
X51350Y-26900D02*
X51350Y-27100D01*
X51350Y-27100D02*
X50850Y-27100D01*
X50850Y-27100D02*
X50850Y-26900D01*
X46450Y-25775D02*
X46450Y-27775D01*
X46450Y-27775D02*
X44650Y-27775D01*
X44650Y-27775D02*
X44650Y-25775D01*
X44650Y-25775D02*
X46450Y-25775D01*
X45850Y-25775D02*
X45850Y-25975D01*
X45850Y-25975D02*
X45350Y-25975D01*
X45350Y-25975D02*
X45350Y-25775D01*
G54D12*
X47450Y-28300D02*
G75*
G03X47450Y-28300I-50J0D01*
G74*
G01*
X47400Y-28750D02*
X47400Y-28350D01*
X47400Y-28350D02*
X48000Y-28350D01*
X48000Y-28350D02*
X48000Y-28750D01*
X48000Y-29150D02*
X48000Y-29550D01*
X48000Y-29550D02*
X47400Y-29550D01*
X47400Y-29550D02*
X47400Y-29150D01*
X48550Y-27575D02*
G75*
G03X48550Y-27575I-50J0D01*
G74*
G01*
X48500Y-28025D02*
X48500Y-27625D01*
X48500Y-27625D02*
X49100Y-27625D01*
X49100Y-27625D02*
X49100Y-28025D01*
X49100Y-28425D02*
X49100Y-28825D01*
X49100Y-28825D02*
X48500Y-28825D01*
X48500Y-28825D02*
X48500Y-28425D01*
X53475Y-29600D02*
G75*
G03X53475Y-29600I-50J0D01*
G74*
G01*
X53425Y-29150D02*
X53425Y-29550D01*
X53425Y-29550D02*
X52825Y-29550D01*
X52825Y-29550D02*
X52825Y-29150D01*
X52825Y-28750D02*
X52825Y-28350D01*
X52825Y-28350D02*
X53425Y-28350D01*
X53425Y-28350D02*
X53425Y-28750D01*
X49000Y-23800D02*
G75*
G03X49000Y-23800I-50J0D01*
G74*
G01*
X48950Y-23350D02*
X48950Y-23750D01*
X48950Y-23750D02*
X48350Y-23750D01*
X48350Y-23750D02*
X48350Y-23350D01*
X48350Y-22950D02*
X48350Y-22550D01*
X48350Y-22550D02*
X48950Y-22550D01*
X48950Y-22550D02*
X48950Y-22950D01*
X43400Y-27150D02*
G75*
G03X43400Y-27150I-50J0D01*
G74*
G01*
X43350Y-26700D02*
X43350Y-27100D01*
X43350Y-27100D02*
X42750Y-27100D01*
X42750Y-27100D02*
X42750Y-26700D01*
X42750Y-26300D02*
X42750Y-25900D01*
X42750Y-25900D02*
X43350Y-25900D01*
X43350Y-25900D02*
X43350Y-26300D01*
X44900Y-28425D02*
G75*
G03X44900Y-28425I-50J0D01*
G74*
G01*
X44400Y-28425D02*
X44800Y-28425D01*
X44800Y-28425D02*
X44800Y-29025D01*
X44800Y-29025D02*
X44400Y-29025D01*
X44000Y-29025D02*
X43600Y-29025D01*
X43600Y-29025D02*
X43600Y-28425D01*
X43600Y-28425D02*
X44000Y-28425D01*
X44225Y-24475D02*
G75*
G03X44225Y-24475I-50J0D01*
G74*
G01*
X43725Y-24475D02*
X44125Y-24475D01*
X44125Y-24475D02*
X44125Y-25075D01*
X44125Y-25075D02*
X43725Y-25075D01*
X43325Y-25075D02*
X42925Y-25075D01*
X42925Y-25075D02*
X42925Y-24475D01*
X42925Y-24475D02*
X43325Y-24475D01*
G54D13*
X50510Y-22353D02*
X54046Y-25889D01*
X54046Y-25889D02*
X53339Y-26596D01*
X53339Y-26596D02*
X49803Y-23060D01*
X53692Y-26242D02*
X54046Y-26596D01*
X49803Y-22353D02*
X50157Y-22707D01*
X50298Y-22565D02*
X50722Y-22565D01*
X50510Y-22353D02*
X49803Y-23060D01*
G54D14*
X54725Y-30175D02*
X53725Y-30175D01*
X53725Y-30175D02*
X53725Y-27175D01*
X53725Y-27175D02*
X54725Y-27175D01*
X54725Y-27175D02*
X54725Y-30175D01*
X53725Y-29175D02*
X54725Y-29175D01*
G54D15*
X54842Y-23971D02*
X53346Y-23971D01*
X45157Y-23971D02*
X46653Y-23971D01*
X46653Y-14128D02*
X45157Y-14128D01*
X54842Y-14128D02*
X53346Y-14128D01*
X46653Y-23971D02*
X46653Y-19640D01*
X46653Y-19640D02*
X53346Y-19640D01*
X53346Y-19640D02*
X53346Y-23971D01*
X46653Y-18459D02*
X53346Y-18459D01*
X46653Y-14128D02*
X46653Y-18459D01*
X53346Y-14128D02*
X53346Y-18459D01*
X58188Y-14128D02*
X54842Y-14128D01*
X41811Y-23971D02*
X45157Y-23971D01*
X41811Y-14128D02*
X45157Y-14128D01*
X58188Y-14128D02*
X58188Y-23971D01*
X58188Y-23971D02*
X54842Y-23971D01*
X41811Y-23971D02*
X41811Y-14128D01*
G54D14*
X58200Y-32900D02*
X54900Y-32900D01*
X54900Y-32900D02*
X54900Y-28500D01*
X54900Y-28500D02*
X58200Y-28500D01*
X58200Y-28500D02*
X58200Y-32900D01*
X58200Y-28450D02*
X54900Y-28450D01*
X54900Y-28450D02*
X54900Y-24050D01*
X54900Y-24050D02*
X58200Y-24050D01*
X58200Y-24050D02*
X58200Y-28450D01*
G54D15*
X45236Y-34615D02*
X45532Y-34615D01*
X45532Y-34605D02*
X45532Y-32912D01*
X43986Y-32902D02*
X43986Y-34615D01*
X43986Y-34615D02*
X45246Y-34615D01*
X42795Y-32902D02*
X46654Y-32902D01*
X42795Y-29202D02*
X46654Y-29202D01*
X46654Y-29202D02*
X46654Y-32902D01*
X42795Y-29202D02*
X42795Y-32902D01*
X50661Y-34615D02*
X50957Y-34615D01*
X50957Y-34605D02*
X50957Y-32912D01*
X49411Y-32902D02*
X49411Y-34615D01*
X49411Y-34615D02*
X50671Y-34615D01*
X48220Y-32902D02*
X52079Y-32902D01*
X48220Y-29202D02*
X52079Y-29202D01*
X52079Y-29202D02*
X52079Y-32902D01*
X48220Y-29202D02*
X48220Y-32902D01*
G54D16*
X47975Y-20075D02*
X47975Y-19825D01*
X47975Y-19825D02*
X51975Y-19825D01*
X51975Y-19825D02*
X51975Y-20075D01*
X47975Y-21575D02*
X47975Y-20075D01*
X47975Y-20075D02*
X51975Y-20075D01*
X51975Y-20075D02*
X51975Y-21575D01*
X51975Y-21575D02*
X47975Y-21575D01*
G54D15*
X48027Y-23591D02*
X47672Y-23591D01*
X47672Y-23591D02*
X47672Y-23463D01*
X48027Y-23463D02*
X48027Y-23591D01*
X48027Y-22626D02*
X48027Y-23473D01*
X48027Y-23473D02*
X47672Y-23473D01*
X47672Y-23473D02*
X47672Y-22626D01*
X47672Y-22626D02*
X48027Y-22626D01*
G54D17*
G36*
X47409Y-16931D02*
X47382Y-17051D01*
X47307Y-17130D01*
X47189Y-17164D01*
X47033Y-17151D01*
X47000Y-17143D01*
X46952Y-17101D01*
X46945Y-17018D01*
X46962Y-16951D01*
X46991Y-16917D01*
X47029Y-16936D01*
X47095Y-16958D01*
X47127Y-16953D01*
X47150Y-16932D01*
X47132Y-16894D01*
X47068Y-16827D01*
X47061Y-16821D01*
X46970Y-16707D01*
X46944Y-16600D01*
X46984Y-16496D01*
X47028Y-16444D01*
X47098Y-16387D01*
X47172Y-16370D01*
X47247Y-16376D01*
X47347Y-16393D01*
X47395Y-16418D01*
X47404Y-16465D01*
X47393Y-16529D01*
X47372Y-16596D01*
X47340Y-16611D01*
X47289Y-16592D01*
X47216Y-16573D01*
X47181Y-16588D01*
X47196Y-16627D01*
X47225Y-16653D01*
X47325Y-16730D01*
X47380Y-16791D01*
X47404Y-16856D01*
X47409Y-16931D01*
X47409Y-16931D01*
X47409Y-16931D01*
G37*
G36*
X47709Y-17166D02*
X47592Y-17166D01*
X47475Y-17166D01*
X47475Y-16858D01*
X47475Y-16550D01*
X47592Y-16550D01*
X47709Y-16550D01*
X47709Y-16858D01*
X47709Y-17166D01*
X47709Y-17166D01*
X47709Y-17166D01*
G37*
G36*
X48275Y-17166D02*
X48175Y-17166D01*
X48075Y-17166D01*
X48075Y-16950D01*
X48070Y-16836D01*
X48058Y-16759D01*
X48042Y-16733D01*
X48024Y-16763D01*
X48012Y-16845D01*
X48009Y-16950D01*
X48009Y-17166D01*
X47892Y-17166D01*
X47775Y-17166D01*
X47775Y-16850D01*
X47775Y-16533D01*
X47892Y-16533D01*
X47973Y-16543D01*
X48008Y-16570D01*
X48009Y-16573D01*
X48018Y-16596D01*
X48049Y-16573D01*
X48121Y-16535D01*
X48199Y-16564D01*
X48223Y-16585D01*
X48252Y-16636D01*
X48269Y-16725D01*
X48275Y-16865D01*
X48275Y-16902D01*
X48275Y-17166D01*
X48275Y-17166D01*
X48275Y-17166D01*
G37*
G36*
X48884Y-17166D02*
X48763Y-17166D01*
X48685Y-17162D01*
X48651Y-17138D01*
X48642Y-17073D01*
X48642Y-17035D01*
X48634Y-16946D01*
X48615Y-16889D01*
X48609Y-16883D01*
X48587Y-16899D01*
X48576Y-16971D01*
X48575Y-17014D01*
X48573Y-17107D01*
X48556Y-17151D01*
X48512Y-17165D01*
X48459Y-17166D01*
X48342Y-17166D01*
X48342Y-16766D01*
X48342Y-16366D01*
X48459Y-16366D01*
X48575Y-16366D01*
X48575Y-16551D01*
X48580Y-16659D01*
X48595Y-16713D01*
X48609Y-16716D01*
X48634Y-16670D01*
X48642Y-16614D01*
X48651Y-16559D01*
X48691Y-16537D01*
X48759Y-16533D01*
X48840Y-16542D01*
X48871Y-16577D01*
X48855Y-16648D01*
X48825Y-16712D01*
X48794Y-16803D01*
X48807Y-16847D01*
X48832Y-16903D01*
X48856Y-16995D01*
X48861Y-17026D01*
X48884Y-17166D01*
X48884Y-17166D01*
X48884Y-17166D01*
G37*
G36*
X49742Y-16887D02*
X49716Y-17008D01*
X49647Y-17101D01*
X49564Y-17145D01*
X49564Y-16812D01*
X49529Y-16778D01*
X49481Y-16782D01*
X49471Y-16790D01*
X49453Y-16842D01*
X49477Y-16889D01*
X49509Y-16900D01*
X49551Y-16875D01*
X49560Y-16863D01*
X49564Y-16812D01*
X49564Y-17145D01*
X49550Y-17153D01*
X49440Y-17152D01*
X49416Y-17144D01*
X49363Y-17095D01*
X49314Y-17007D01*
X49282Y-16906D01*
X49275Y-16850D01*
X49296Y-16734D01*
X49351Y-16630D01*
X49424Y-16560D01*
X49456Y-16547D01*
X49568Y-16548D01*
X49656Y-16606D01*
X49716Y-16714D01*
X49741Y-16864D01*
X49742Y-16887D01*
X49742Y-16887D01*
X49742Y-16887D01*
G37*
G36*
X50272Y-16695D02*
X50249Y-16767D01*
X50194Y-16814D01*
X50119Y-16818D01*
X50075Y-16811D01*
X50052Y-16829D01*
X50043Y-16886D01*
X50042Y-16982D01*
X50040Y-17087D01*
X50029Y-17142D01*
X50000Y-17163D01*
X49944Y-17166D01*
X49942Y-17166D01*
X49842Y-17166D01*
X49842Y-16850D01*
X49842Y-16533D01*
X49942Y-16533D01*
X50018Y-16545D01*
X50042Y-16587D01*
X50042Y-16589D01*
X50047Y-16624D01*
X50071Y-16606D01*
X50090Y-16581D01*
X50138Y-16537D01*
X50192Y-16549D01*
X50198Y-16553D01*
X50257Y-16617D01*
X50272Y-16695D01*
X50272Y-16695D01*
X50272Y-16695D01*
G37*
G36*
X51142Y-16931D02*
X51116Y-17051D01*
X51041Y-17130D01*
X50922Y-17164D01*
X50766Y-17151D01*
X50734Y-17143D01*
X50685Y-17101D01*
X50678Y-17018D01*
X50696Y-16951D01*
X50724Y-16917D01*
X50762Y-16936D01*
X50828Y-16958D01*
X50861Y-16953D01*
X50884Y-16932D01*
X50866Y-16894D01*
X50801Y-16827D01*
X50794Y-16821D01*
X50703Y-16707D01*
X50677Y-16600D01*
X50717Y-16496D01*
X50761Y-16444D01*
X50831Y-16387D01*
X50906Y-16370D01*
X50980Y-16376D01*
X51081Y-16393D01*
X51129Y-16418D01*
X51138Y-16465D01*
X51126Y-16529D01*
X51106Y-16596D01*
X51073Y-16611D01*
X51023Y-16592D01*
X50949Y-16573D01*
X50914Y-16588D01*
X50929Y-16627D01*
X50959Y-16653D01*
X51058Y-16730D01*
X51114Y-16791D01*
X51137Y-16856D01*
X51142Y-16931D01*
X51142Y-16931D01*
X51142Y-16931D01*
G37*
G36*
X51905Y-16533D02*
X51853Y-16708D01*
X51814Y-16838D01*
X51776Y-16967D01*
X51761Y-17016D01*
X51720Y-17109D01*
X51669Y-17158D01*
X51620Y-17159D01*
X51586Y-17104D01*
X51586Y-17102D01*
X51556Y-17042D01*
X51523Y-17046D01*
X51499Y-17100D01*
X51463Y-17154D01*
X51430Y-17166D01*
X51395Y-17141D01*
X51354Y-17062D01*
X51304Y-16924D01*
X51283Y-16858D01*
X51188Y-16550D01*
X51284Y-16539D01*
X51384Y-16553D01*
X51427Y-16589D01*
X51462Y-16630D01*
X51473Y-16617D01*
X51474Y-16591D01*
X51498Y-16547D01*
X51549Y-16533D01*
X51595Y-16549D01*
X51609Y-16583D01*
X51626Y-16627D01*
X51642Y-16633D01*
X51671Y-16606D01*
X51675Y-16583D01*
X51701Y-16546D01*
X51783Y-16533D01*
X51790Y-16533D01*
X51905Y-16533D01*
X51905Y-16533D01*
X51905Y-16533D01*
G37*
G36*
X52175Y-17166D02*
X52059Y-17166D01*
X51942Y-17166D01*
X51942Y-16858D01*
X51942Y-16550D01*
X52059Y-16550D01*
X52175Y-16550D01*
X52175Y-16858D01*
X52175Y-17166D01*
X52175Y-17166D01*
X52175Y-17166D01*
G37*
G36*
X53042Y-17166D02*
X52942Y-17166D01*
X52842Y-17166D01*
X52842Y-16950D01*
X52838Y-16828D01*
X52827Y-16760D01*
X52803Y-16734D01*
X52792Y-16733D01*
X52764Y-16747D01*
X52748Y-16799D01*
X52742Y-16900D01*
X52742Y-16950D01*
X52742Y-17166D01*
X52642Y-17166D01*
X52542Y-17166D01*
X52542Y-16950D01*
X52537Y-16836D01*
X52525Y-16759D01*
X52509Y-16733D01*
X52491Y-16763D01*
X52479Y-16845D01*
X52475Y-16950D01*
X52475Y-17166D01*
X52359Y-17166D01*
X52242Y-17166D01*
X52242Y-16850D01*
X52242Y-16533D01*
X52359Y-16533D01*
X52440Y-16543D01*
X52475Y-16570D01*
X52475Y-16573D01*
X52485Y-16596D01*
X52515Y-16573D01*
X52589Y-16536D01*
X52665Y-16550D01*
X52703Y-16589D01*
X52731Y-16627D01*
X52764Y-16615D01*
X52791Y-16589D01*
X52871Y-16536D01*
X52939Y-16545D01*
X52992Y-16612D01*
X53028Y-16733D01*
X53042Y-16904D01*
X53042Y-16924D01*
X53042Y-17166D01*
X53042Y-17166D01*
X53042Y-17166D01*
G37*
G36*
X47701Y-16445D02*
X47686Y-16504D01*
X47644Y-16533D01*
X47642Y-16533D01*
X47601Y-16506D01*
X47586Y-16481D01*
X47585Y-16419D01*
X47618Y-16379D01*
X47666Y-16380D01*
X47680Y-16391D01*
X47701Y-16445D01*
X47701Y-16445D01*
X47701Y-16445D01*
G37*
G36*
X52167Y-16445D02*
X52153Y-16504D01*
X52111Y-16533D01*
X52109Y-16533D01*
X52067Y-16506D01*
X52053Y-16481D01*
X52052Y-16419D01*
X52085Y-16379D01*
X52133Y-16380D01*
X52146Y-16391D01*
X52167Y-16445D01*
X52167Y-16445D01*
X52167Y-16445D01*
G37*
G36*
X48537Y-15004D02*
X48524Y-15072D01*
X48509Y-15114D01*
X48459Y-15184D01*
X48395Y-15200D01*
X48320Y-15227D01*
X48283Y-15298D01*
X48292Y-15399D01*
X48293Y-15403D01*
X48330Y-15455D01*
X48394Y-15458D01*
X48451Y-15458D01*
X48488Y-15498D01*
X48511Y-15558D01*
X48533Y-15642D01*
X48523Y-15687D01*
X48504Y-15703D01*
X48407Y-15731D01*
X48293Y-15721D01*
X48195Y-15676D01*
X48183Y-15666D01*
X48098Y-15552D01*
X48057Y-15420D01*
X48056Y-15283D01*
X48091Y-15154D01*
X48157Y-15046D01*
X48251Y-14971D01*
X48367Y-14942D01*
X48422Y-14947D01*
X48506Y-14969D01*
X48537Y-15004D01*
X48537Y-15004D01*
X48537Y-15004D01*
G37*
G36*
X49109Y-15733D02*
X49009Y-15733D01*
X48932Y-15720D01*
X48909Y-15678D01*
X48904Y-15641D01*
X48878Y-15651D01*
X48848Y-15678D01*
X48777Y-15726D01*
X48714Y-15721D01*
X48675Y-15700D01*
X48647Y-15660D01*
X48628Y-15576D01*
X48616Y-15438D01*
X48613Y-15384D01*
X48602Y-15100D01*
X48705Y-15100D01*
X48809Y-15100D01*
X48809Y-15319D01*
X48812Y-15443D01*
X48825Y-15509D01*
X48848Y-15525D01*
X48850Y-15525D01*
X48877Y-15483D01*
X48895Y-15386D01*
X48902Y-15305D01*
X48909Y-15193D01*
X48921Y-15131D01*
X48946Y-15105D01*
X48994Y-15100D01*
X49010Y-15100D01*
X49109Y-15100D01*
X49109Y-15416D01*
X49109Y-15733D01*
X49109Y-15733D01*
X49109Y-15733D01*
G37*
G36*
X49638Y-15261D02*
X49615Y-15334D01*
X49561Y-15381D01*
X49486Y-15384D01*
X49442Y-15378D01*
X49419Y-15395D01*
X49410Y-15453D01*
X49409Y-15549D01*
X49407Y-15654D01*
X49396Y-15709D01*
X49367Y-15730D01*
X49311Y-15733D01*
X49309Y-15733D01*
X49209Y-15733D01*
X49209Y-15416D01*
X49209Y-15100D01*
X49309Y-15100D01*
X49384Y-15112D01*
X49408Y-15154D01*
X49409Y-15156D01*
X49414Y-15191D01*
X49437Y-15172D01*
X49457Y-15148D01*
X49505Y-15104D01*
X49558Y-15116D01*
X49565Y-15120D01*
X49623Y-15183D01*
X49638Y-15261D01*
X49638Y-15261D01*
X49638Y-15261D01*
G37*
G36*
X50138Y-15261D02*
X50115Y-15334D01*
X50061Y-15381D01*
X49986Y-15384D01*
X49942Y-15378D01*
X49919Y-15395D01*
X49910Y-15453D01*
X49909Y-15549D01*
X49907Y-15654D01*
X49896Y-15709D01*
X49867Y-15730D01*
X49811Y-15733D01*
X49809Y-15733D01*
X49709Y-15733D01*
X49709Y-15416D01*
X49709Y-15100D01*
X49809Y-15100D01*
X49884Y-15112D01*
X49908Y-15154D01*
X49909Y-15156D01*
X49914Y-15191D01*
X49937Y-15172D01*
X49957Y-15148D01*
X50005Y-15104D01*
X50058Y-15116D01*
X50065Y-15120D01*
X50123Y-15183D01*
X50138Y-15261D01*
X50138Y-15261D01*
X50138Y-15261D01*
G37*
G36*
X50607Y-15425D02*
X50590Y-15459D01*
X50532Y-15466D01*
X50511Y-15466D01*
X50475Y-15470D01*
X50475Y-15313D01*
X50456Y-15275D01*
X50436Y-15274D01*
X50392Y-15307D01*
X50386Y-15347D01*
X50422Y-15366D01*
X50468Y-15339D01*
X50475Y-15313D01*
X50475Y-15470D01*
X50442Y-15475D01*
X50424Y-15497D01*
X50425Y-15500D01*
X50471Y-15525D01*
X50527Y-15533D01*
X50592Y-15551D01*
X50605Y-15597D01*
X50563Y-15658D01*
X50534Y-15681D01*
X50433Y-15728D01*
X50337Y-15713D01*
X50271Y-15669D01*
X50223Y-15618D01*
X50199Y-15551D01*
X50192Y-15445D01*
X50192Y-15423D01*
X50201Y-15288D01*
X50233Y-15199D01*
X50255Y-15170D01*
X50344Y-15108D01*
X50434Y-15107D01*
X50515Y-15160D01*
X50575Y-15260D01*
X50598Y-15345D01*
X50607Y-15425D01*
X50607Y-15425D01*
X50607Y-15425D01*
G37*
G36*
X51175Y-15733D02*
X51075Y-15733D01*
X50975Y-15733D01*
X50975Y-15516D01*
X50970Y-15403D01*
X50958Y-15325D01*
X50942Y-15300D01*
X50924Y-15330D01*
X50912Y-15411D01*
X50909Y-15516D01*
X50909Y-15733D01*
X50792Y-15733D01*
X50675Y-15733D01*
X50675Y-15416D01*
X50675Y-15100D01*
X50792Y-15100D01*
X50873Y-15110D01*
X50908Y-15136D01*
X50909Y-15140D01*
X50918Y-15163D01*
X50949Y-15140D01*
X51021Y-15102D01*
X51099Y-15130D01*
X51123Y-15152D01*
X51152Y-15203D01*
X51169Y-15292D01*
X51175Y-15431D01*
X51175Y-15469D01*
X51175Y-15733D01*
X51175Y-15733D01*
X51175Y-15733D01*
G37*
G36*
X51575Y-15183D02*
X51564Y-15245D01*
X51542Y-15266D01*
X51518Y-15295D01*
X51509Y-15365D01*
X51509Y-15366D01*
X51519Y-15436D01*
X51543Y-15466D01*
X51544Y-15466D01*
X51565Y-15496D01*
X51570Y-15572D01*
X51569Y-15591D01*
X51552Y-15679D01*
X51516Y-15719D01*
X51490Y-15726D01*
X51416Y-15710D01*
X51365Y-15674D01*
X51327Y-15604D01*
X51296Y-15499D01*
X51287Y-15447D01*
X51269Y-15349D01*
X51248Y-15280D01*
X51237Y-15264D01*
X51244Y-15234D01*
X51290Y-15172D01*
X51359Y-15099D01*
X51440Y-15022D01*
X51485Y-14989D01*
X51505Y-14994D01*
X51509Y-15026D01*
X51521Y-15084D01*
X51542Y-15100D01*
X51567Y-15128D01*
X51575Y-15183D01*
X51575Y-15183D01*
X51575Y-15183D01*
G37*
G54D11*
X50364Y-26382D02*
X50364Y-26746D01*
X50383Y-26789D01*
X50402Y-26810D01*
X50440Y-26832D01*
X50516Y-26832D01*
X50554Y-26810D01*
X50573Y-26789D01*
X50592Y-26746D01*
X50592Y-26382D01*
X50954Y-26532D02*
X50954Y-26832D01*
X50859Y-26360D02*
X50764Y-26682D01*
X51011Y-26682D01*
X51240Y-26382D02*
X51278Y-26382D01*
X51316Y-26403D01*
X51335Y-26425D01*
X51354Y-26467D01*
X51373Y-26553D01*
X51373Y-26660D01*
X51354Y-26746D01*
X51335Y-26789D01*
X51316Y-26810D01*
X51278Y-26832D01*
X51240Y-26832D01*
X51202Y-26810D01*
X51183Y-26789D01*
X51164Y-26746D01*
X51145Y-26660D01*
X51145Y-26553D01*
X51164Y-26467D01*
X51183Y-26425D01*
X51202Y-26403D01*
X51240Y-26382D01*
X51754Y-26832D02*
X51526Y-26832D01*
X51640Y-26832D02*
X51640Y-26382D01*
X51602Y-26446D01*
X51564Y-26489D01*
X51526Y-26510D01*
X44964Y-25182D02*
X44964Y-25546D01*
X44983Y-25589D01*
X45002Y-25610D01*
X45040Y-25632D01*
X45116Y-25632D01*
X45154Y-25610D01*
X45173Y-25589D01*
X45192Y-25546D01*
X45192Y-25182D01*
X45364Y-25225D02*
X45383Y-25203D01*
X45421Y-25182D01*
X45516Y-25182D01*
X45554Y-25203D01*
X45573Y-25225D01*
X45592Y-25267D01*
X45592Y-25310D01*
X45573Y-25375D01*
X45345Y-25632D01*
X45592Y-25632D01*
X45840Y-25182D02*
X45878Y-25182D01*
X45916Y-25203D01*
X45935Y-25225D01*
X45954Y-25267D01*
X45973Y-25353D01*
X45973Y-25460D01*
X45954Y-25546D01*
X45935Y-25589D01*
X45916Y-25610D01*
X45878Y-25632D01*
X45840Y-25632D01*
X45802Y-25610D01*
X45783Y-25589D01*
X45764Y-25546D01*
X45745Y-25460D01*
X45745Y-25353D01*
X45764Y-25267D01*
X45783Y-25225D01*
X45802Y-25203D01*
X45840Y-25182D01*
X46354Y-25632D02*
X46126Y-25632D01*
X46240Y-25632D02*
X46240Y-25182D01*
X46202Y-25246D01*
X46164Y-25289D01*
X46126Y-25310D01*
G54D18*
X47329Y-29095D02*
X47235Y-29161D01*
X47329Y-29208D02*
X47132Y-29208D01*
X47132Y-29132D01*
X47142Y-29114D01*
X47151Y-29104D01*
X47170Y-29095D01*
X47198Y-29095D01*
X47217Y-29104D01*
X47226Y-29114D01*
X47235Y-29132D01*
X47235Y-29208D01*
X47198Y-28926D02*
X47329Y-28926D01*
X47123Y-28973D02*
X47264Y-29020D01*
X47264Y-28898D01*
X47132Y-28785D02*
X47132Y-28767D01*
X47142Y-28748D01*
X47151Y-28738D01*
X47170Y-28729D01*
X47207Y-28720D01*
X47254Y-28720D01*
X47292Y-28729D01*
X47310Y-28738D01*
X47320Y-28748D01*
X47329Y-28767D01*
X47329Y-28785D01*
X47320Y-28804D01*
X47310Y-28814D01*
X47292Y-28823D01*
X47254Y-28832D01*
X47207Y-28832D01*
X47170Y-28823D01*
X47151Y-28814D01*
X47142Y-28804D01*
X47132Y-28785D01*
X47132Y-28654D02*
X47132Y-28532D01*
X47207Y-28598D01*
X47207Y-28570D01*
X47217Y-28551D01*
X47226Y-28541D01*
X47245Y-28532D01*
X47292Y-28532D01*
X47310Y-28541D01*
X47320Y-28551D01*
X47329Y-28570D01*
X47329Y-28626D01*
X47320Y-28645D01*
X47310Y-28654D01*
X48379Y-28420D02*
X48285Y-28486D01*
X48379Y-28533D02*
X48182Y-28533D01*
X48182Y-28457D01*
X48192Y-28439D01*
X48201Y-28429D01*
X48220Y-28420D01*
X48248Y-28420D01*
X48267Y-28429D01*
X48276Y-28439D01*
X48285Y-28457D01*
X48285Y-28533D01*
X48248Y-28251D02*
X48379Y-28251D01*
X48173Y-28298D02*
X48314Y-28345D01*
X48314Y-28223D01*
X48182Y-28110D02*
X48182Y-28092D01*
X48192Y-28073D01*
X48201Y-28063D01*
X48220Y-28054D01*
X48257Y-28045D01*
X48304Y-28045D01*
X48342Y-28054D01*
X48360Y-28063D01*
X48370Y-28073D01*
X48379Y-28092D01*
X48379Y-28110D01*
X48370Y-28129D01*
X48360Y-28139D01*
X48342Y-28148D01*
X48304Y-28157D01*
X48257Y-28157D01*
X48220Y-28148D01*
X48201Y-28139D01*
X48192Y-28129D01*
X48182Y-28110D01*
X48201Y-27970D02*
X48192Y-27960D01*
X48182Y-27942D01*
X48182Y-27895D01*
X48192Y-27876D01*
X48201Y-27866D01*
X48220Y-27857D01*
X48239Y-27857D01*
X48267Y-27866D01*
X48379Y-27979D01*
X48379Y-27857D01*
X52929Y-29904D02*
X52863Y-29810D01*
X52816Y-29904D02*
X52816Y-29707D01*
X52892Y-29707D01*
X52910Y-29717D01*
X52920Y-29726D01*
X52929Y-29745D01*
X52929Y-29773D01*
X52920Y-29792D01*
X52910Y-29801D01*
X52892Y-29810D01*
X52816Y-29810D01*
X53098Y-29773D02*
X53098Y-29904D01*
X53051Y-29698D02*
X53004Y-29839D01*
X53126Y-29839D01*
X53239Y-29707D02*
X53257Y-29707D01*
X53276Y-29717D01*
X53286Y-29726D01*
X53295Y-29745D01*
X53304Y-29782D01*
X53304Y-29829D01*
X53295Y-29867D01*
X53286Y-29885D01*
X53276Y-29895D01*
X53257Y-29904D01*
X53239Y-29904D01*
X53220Y-29895D01*
X53210Y-29885D01*
X53201Y-29867D01*
X53192Y-29829D01*
X53192Y-29782D01*
X53201Y-29745D01*
X53210Y-29726D01*
X53220Y-29717D01*
X53239Y-29707D01*
X53492Y-29904D02*
X53379Y-29904D01*
X53436Y-29904D02*
X53436Y-29707D01*
X53417Y-29735D01*
X53398Y-29754D01*
X53379Y-29764D01*
X49304Y-23370D02*
X49210Y-23436D01*
X49304Y-23483D02*
X49107Y-23483D01*
X49107Y-23407D01*
X49117Y-23389D01*
X49126Y-23379D01*
X49145Y-23370D01*
X49173Y-23370D01*
X49192Y-23379D01*
X49201Y-23389D01*
X49210Y-23407D01*
X49210Y-23483D01*
X49107Y-23304D02*
X49107Y-23182D01*
X49182Y-23248D01*
X49182Y-23220D01*
X49192Y-23201D01*
X49201Y-23192D01*
X49220Y-23182D01*
X49267Y-23182D01*
X49285Y-23192D01*
X49295Y-23201D01*
X49304Y-23220D01*
X49304Y-23276D01*
X49295Y-23295D01*
X49285Y-23304D01*
X49107Y-23060D02*
X49107Y-23042D01*
X49117Y-23023D01*
X49126Y-23013D01*
X49145Y-23004D01*
X49182Y-22995D01*
X49229Y-22995D01*
X49267Y-23004D01*
X49285Y-23013D01*
X49295Y-23023D01*
X49304Y-23042D01*
X49304Y-23060D01*
X49295Y-23079D01*
X49285Y-23089D01*
X49267Y-23098D01*
X49229Y-23107D01*
X49182Y-23107D01*
X49145Y-23098D01*
X49126Y-23089D01*
X49117Y-23079D01*
X49107Y-23060D01*
X49126Y-22920D02*
X49117Y-22910D01*
X49107Y-22892D01*
X49107Y-22845D01*
X49117Y-22826D01*
X49126Y-22816D01*
X49145Y-22807D01*
X49164Y-22807D01*
X49192Y-22816D01*
X49304Y-22929D01*
X49304Y-22807D01*
X42579Y-26720D02*
X42485Y-26786D01*
X42579Y-26833D02*
X42382Y-26833D01*
X42382Y-26757D01*
X42392Y-26739D01*
X42401Y-26729D01*
X42420Y-26720D01*
X42448Y-26720D01*
X42467Y-26729D01*
X42476Y-26739D01*
X42485Y-26757D01*
X42485Y-26833D01*
X42401Y-26645D02*
X42392Y-26636D01*
X42382Y-26617D01*
X42382Y-26570D01*
X42392Y-26551D01*
X42401Y-26542D01*
X42420Y-26532D01*
X42439Y-26532D01*
X42467Y-26542D01*
X42579Y-26654D01*
X42579Y-26532D01*
X42382Y-26410D02*
X42382Y-26392D01*
X42392Y-26373D01*
X42401Y-26363D01*
X42420Y-26354D01*
X42457Y-26345D01*
X42504Y-26345D01*
X42542Y-26354D01*
X42560Y-26363D01*
X42570Y-26373D01*
X42579Y-26392D01*
X42579Y-26410D01*
X42570Y-26429D01*
X42560Y-26439D01*
X42542Y-26448D01*
X42504Y-26457D01*
X42457Y-26457D01*
X42420Y-26448D01*
X42401Y-26439D01*
X42392Y-26429D01*
X42382Y-26410D01*
X42382Y-26279D02*
X42382Y-26157D01*
X42457Y-26223D01*
X42457Y-26195D01*
X42467Y-26176D01*
X42476Y-26166D01*
X42495Y-26157D01*
X42542Y-26157D01*
X42560Y-26166D01*
X42570Y-26176D01*
X42579Y-26195D01*
X42579Y-26251D01*
X42570Y-26270D01*
X42560Y-26279D01*
X44029Y-28304D02*
X43963Y-28210D01*
X43916Y-28304D02*
X43916Y-28107D01*
X43992Y-28107D01*
X44010Y-28117D01*
X44020Y-28126D01*
X44029Y-28145D01*
X44029Y-28173D01*
X44020Y-28192D01*
X44010Y-28201D01*
X43992Y-28210D01*
X43916Y-28210D01*
X44104Y-28126D02*
X44113Y-28117D01*
X44132Y-28107D01*
X44179Y-28107D01*
X44198Y-28117D01*
X44207Y-28126D01*
X44217Y-28145D01*
X44217Y-28164D01*
X44207Y-28192D01*
X44095Y-28304D01*
X44217Y-28304D01*
X44339Y-28107D02*
X44357Y-28107D01*
X44376Y-28117D01*
X44386Y-28126D01*
X44395Y-28145D01*
X44404Y-28182D01*
X44404Y-28229D01*
X44395Y-28267D01*
X44386Y-28285D01*
X44376Y-28295D01*
X44357Y-28304D01*
X44339Y-28304D01*
X44320Y-28295D01*
X44310Y-28285D01*
X44301Y-28267D01*
X44292Y-28229D01*
X44292Y-28182D01*
X44301Y-28145D01*
X44310Y-28126D01*
X44320Y-28117D01*
X44339Y-28107D01*
X44479Y-28126D02*
X44489Y-28117D01*
X44507Y-28107D01*
X44554Y-28107D01*
X44573Y-28117D01*
X44583Y-28126D01*
X44592Y-28145D01*
X44592Y-28164D01*
X44583Y-28192D01*
X44470Y-28304D01*
X44592Y-28304D01*
X43279Y-24329D02*
X43213Y-24235D01*
X43166Y-24329D02*
X43166Y-24132D01*
X43242Y-24132D01*
X43260Y-24142D01*
X43270Y-24151D01*
X43279Y-24170D01*
X43279Y-24198D01*
X43270Y-24217D01*
X43260Y-24226D01*
X43242Y-24235D01*
X43166Y-24235D01*
X43354Y-24151D02*
X43363Y-24142D01*
X43382Y-24132D01*
X43429Y-24132D01*
X43448Y-24142D01*
X43457Y-24151D01*
X43467Y-24170D01*
X43467Y-24189D01*
X43457Y-24217D01*
X43345Y-24329D01*
X43467Y-24329D01*
X43589Y-24132D02*
X43607Y-24132D01*
X43626Y-24142D01*
X43636Y-24151D01*
X43645Y-24170D01*
X43654Y-24207D01*
X43654Y-24254D01*
X43645Y-24292D01*
X43636Y-24310D01*
X43626Y-24320D01*
X43607Y-24329D01*
X43589Y-24329D01*
X43570Y-24320D01*
X43560Y-24310D01*
X43551Y-24292D01*
X43542Y-24254D01*
X43542Y-24207D01*
X43551Y-24170D01*
X43560Y-24151D01*
X43570Y-24142D01*
X43589Y-24132D01*
X43842Y-24329D02*
X43729Y-24329D01*
X43786Y-24329D02*
X43786Y-24132D01*
X43767Y-24160D01*
X43748Y-24179D01*
X43729Y-24189D01*
G54D19*
X50446Y-24786D02*
X50514Y-24483D01*
X50244Y-24584D02*
X50633Y-24195D01*
X50768Y-24330D01*
X50783Y-24382D01*
X50781Y-24418D01*
X50761Y-24471D01*
X50706Y-24527D01*
X50652Y-24547D01*
X50616Y-24549D01*
X50564Y-24534D01*
X50430Y-24399D01*
X50953Y-24515D02*
X51172Y-24734D01*
X50906Y-24764D01*
X50957Y-24815D01*
X50972Y-24867D01*
X50970Y-24902D01*
X50950Y-24956D01*
X50857Y-25049D01*
X50803Y-25069D01*
X50768Y-25071D01*
X50716Y-25056D01*
X50615Y-24955D01*
X50600Y-24902D01*
X50601Y-24867D01*
X51391Y-24953D02*
X51425Y-24987D01*
X51440Y-25039D01*
X51438Y-25074D01*
X51418Y-25128D01*
X51361Y-25219D01*
X51268Y-25312D01*
X51177Y-25369D01*
X51123Y-25389D01*
X51088Y-25391D01*
X51036Y-25376D01*
X51002Y-25342D01*
X50987Y-25290D01*
X50989Y-25254D01*
X51009Y-25200D01*
X51066Y-25110D01*
X51159Y-25017D01*
X51250Y-24960D01*
X51303Y-24939D01*
X51339Y-24938D01*
X51391Y-24953D01*
X51627Y-25189D02*
X51846Y-25408D01*
X51579Y-25438D01*
X51630Y-25488D01*
X51645Y-25541D01*
X51643Y-25576D01*
X51623Y-25630D01*
X51531Y-25722D01*
X51477Y-25743D01*
X51441Y-25744D01*
X51389Y-25729D01*
X51288Y-25628D01*
X51273Y-25576D01*
X51275Y-25541D01*
G54D14*
X53373Y-30736D02*
X53373Y-30336D01*
X53602Y-30736D02*
X53430Y-30508D01*
X53602Y-30336D02*
X53373Y-30565D01*
X53983Y-30736D02*
X53754Y-30736D01*
X53869Y-30736D02*
X53869Y-30336D01*
X53830Y-30394D01*
X53792Y-30432D01*
X53754Y-30451D01*
X54230Y-30336D02*
X54269Y-30336D01*
X54307Y-30355D01*
X54326Y-30375D01*
X54345Y-30413D01*
X54364Y-30489D01*
X54364Y-30584D01*
X54345Y-30660D01*
X54326Y-30698D01*
X54307Y-30717D01*
X54269Y-30736D01*
X54230Y-30736D01*
X54192Y-30717D01*
X54173Y-30698D01*
X54154Y-30660D01*
X54135Y-30584D01*
X54135Y-30489D01*
X54154Y-30413D01*
X54173Y-30375D01*
X54192Y-30355D01*
X54230Y-30336D01*
X54745Y-30736D02*
X54516Y-30736D01*
X54630Y-30736D02*
X54630Y-30336D01*
X54592Y-30394D01*
X54554Y-30432D01*
X54516Y-30451D01*
X54771Y-32657D02*
X54471Y-32657D01*
X54471Y-32542D01*
X54485Y-32514D01*
X54500Y-32500D01*
X54528Y-32485D01*
X54571Y-32485D01*
X54600Y-32500D01*
X54614Y-32514D01*
X54628Y-32542D01*
X54628Y-32657D01*
X54771Y-32200D02*
X54771Y-32371D01*
X54771Y-32285D02*
X54471Y-32285D01*
X54514Y-32314D01*
X54542Y-32342D01*
X54557Y-32371D01*
X54471Y-32014D02*
X54471Y-31985D01*
X54485Y-31957D01*
X54500Y-31942D01*
X54528Y-31928D01*
X54585Y-31914D01*
X54657Y-31914D01*
X54714Y-31928D01*
X54742Y-31942D01*
X54757Y-31957D01*
X54771Y-31985D01*
X54771Y-32014D01*
X54757Y-32042D01*
X54742Y-32057D01*
X54714Y-32071D01*
X54657Y-32085D01*
X54585Y-32085D01*
X54528Y-32071D01*
X54500Y-32057D01*
X54485Y-32042D01*
X54471Y-32014D01*
X54771Y-31628D02*
X54771Y-31800D01*
X54771Y-31714D02*
X54471Y-31714D01*
X54514Y-31742D01*
X54542Y-31771D01*
X54557Y-31800D01*
X54721Y-25957D02*
X54421Y-25957D01*
X54421Y-25842D01*
X54435Y-25814D01*
X54450Y-25800D01*
X54478Y-25785D01*
X54521Y-25785D01*
X54550Y-25800D01*
X54564Y-25814D01*
X54578Y-25842D01*
X54578Y-25957D01*
X54721Y-25500D02*
X54721Y-25671D01*
X54721Y-25585D02*
X54421Y-25585D01*
X54464Y-25614D01*
X54492Y-25642D01*
X54507Y-25671D01*
X54421Y-25314D02*
X54421Y-25285D01*
X54435Y-25257D01*
X54450Y-25242D01*
X54478Y-25228D01*
X54535Y-25214D01*
X54607Y-25214D01*
X54664Y-25228D01*
X54692Y-25242D01*
X54707Y-25257D01*
X54721Y-25285D01*
X54721Y-25314D01*
X54707Y-25342D01*
X54692Y-25357D01*
X54664Y-25371D01*
X54607Y-25385D01*
X54535Y-25385D01*
X54478Y-25371D01*
X54450Y-25357D01*
X54435Y-25342D01*
X54421Y-25314D01*
X54450Y-25100D02*
X54435Y-25085D01*
X54421Y-25057D01*
X54421Y-24985D01*
X54435Y-24957D01*
X54450Y-24942D01*
X54478Y-24928D01*
X54507Y-24928D01*
X54550Y-24942D01*
X54721Y-25114D01*
X54721Y-24928D01*
G54D15*
X47134Y-32534D02*
X46946Y-32665D01*
X47134Y-32759D02*
X46740Y-32759D01*
X46740Y-32609D01*
X46759Y-32571D01*
X46778Y-32553D01*
X46815Y-32534D01*
X46871Y-32534D01*
X46909Y-32553D01*
X46928Y-32571D01*
X46946Y-32609D01*
X46946Y-32759D01*
X46740Y-32421D02*
X47134Y-32290D01*
X46740Y-32159D01*
X46778Y-32046D02*
X46759Y-32028D01*
X46740Y-31990D01*
X46740Y-31896D01*
X46759Y-31859D01*
X46778Y-31840D01*
X46815Y-31821D01*
X46853Y-31821D01*
X46909Y-31840D01*
X47134Y-32065D01*
X47134Y-31821D01*
X46740Y-31578D02*
X46740Y-31540D01*
X46759Y-31503D01*
X46778Y-31484D01*
X46815Y-31465D01*
X46890Y-31446D01*
X46984Y-31446D01*
X47059Y-31465D01*
X47096Y-31484D01*
X47115Y-31503D01*
X47134Y-31540D01*
X47134Y-31578D01*
X47115Y-31615D01*
X47096Y-31634D01*
X47059Y-31653D01*
X46984Y-31671D01*
X46890Y-31671D01*
X46815Y-31653D01*
X46778Y-31634D01*
X46759Y-31615D01*
X46740Y-31578D01*
X47134Y-31071D02*
X47134Y-31296D01*
X47134Y-31184D02*
X46740Y-31184D01*
X46796Y-31221D01*
X46834Y-31259D01*
X46853Y-31296D01*
X52584Y-32559D02*
X52396Y-32690D01*
X52584Y-32784D02*
X52190Y-32784D01*
X52190Y-32634D01*
X52209Y-32596D01*
X52228Y-32578D01*
X52265Y-32559D01*
X52321Y-32559D01*
X52359Y-32578D01*
X52378Y-32596D01*
X52396Y-32634D01*
X52396Y-32784D01*
X52190Y-32446D02*
X52584Y-32315D01*
X52190Y-32184D01*
X52190Y-32090D02*
X52190Y-31846D01*
X52340Y-31978D01*
X52340Y-31921D01*
X52359Y-31884D01*
X52378Y-31865D01*
X52415Y-31846D01*
X52509Y-31846D01*
X52546Y-31865D01*
X52565Y-31884D01*
X52584Y-31921D01*
X52584Y-32034D01*
X52565Y-32071D01*
X52546Y-32090D01*
X52190Y-31603D02*
X52190Y-31565D01*
X52209Y-31528D01*
X52228Y-31509D01*
X52265Y-31490D01*
X52340Y-31471D01*
X52434Y-31471D01*
X52509Y-31490D01*
X52546Y-31509D01*
X52565Y-31528D01*
X52584Y-31565D01*
X52584Y-31603D01*
X52565Y-31640D01*
X52546Y-31659D01*
X52509Y-31678D01*
X52434Y-31696D01*
X52340Y-31696D01*
X52265Y-31678D01*
X52228Y-31659D01*
X52209Y-31640D01*
X52190Y-31603D01*
X52584Y-31096D02*
X52584Y-31321D01*
X52584Y-31209D02*
X52190Y-31209D01*
X52246Y-31246D01*
X52284Y-31284D01*
X52303Y-31321D01*
G54D19*
X51380Y-22450D02*
X51342Y-22421D01*
X51304Y-22364D01*
X51247Y-22278D01*
X51209Y-22250D01*
X51171Y-22250D01*
X51190Y-22392D02*
X51152Y-22364D01*
X51114Y-22307D01*
X51095Y-22192D01*
X51095Y-21992D01*
X51114Y-21878D01*
X51152Y-21821D01*
X51190Y-21792D01*
X51266Y-21792D01*
X51304Y-21821D01*
X51342Y-21878D01*
X51361Y-21992D01*
X51361Y-22192D01*
X51342Y-22307D01*
X51304Y-22364D01*
X51266Y-22392D01*
X51190Y-22392D01*
X51495Y-21792D02*
X51742Y-21792D01*
X51609Y-22021D01*
X51666Y-22021D01*
X51704Y-22050D01*
X51723Y-22078D01*
X51742Y-22135D01*
X51742Y-22278D01*
X51723Y-22335D01*
X51704Y-22364D01*
X51666Y-22392D01*
X51552Y-22392D01*
X51514Y-22364D01*
X51495Y-22335D01*
X51990Y-21792D02*
X52028Y-21792D01*
X52066Y-21821D01*
X52085Y-21850D01*
X52104Y-21907D01*
X52123Y-22021D01*
X52123Y-22164D01*
X52104Y-22278D01*
X52085Y-22335D01*
X52066Y-22364D01*
X52028Y-22392D01*
X51990Y-22392D01*
X51952Y-22364D01*
X51933Y-22335D01*
X51914Y-22278D01*
X51895Y-22164D01*
X51895Y-22021D01*
X51914Y-21907D01*
X51933Y-21850D01*
X51952Y-21821D01*
X51990Y-21792D01*
X52504Y-22392D02*
X52276Y-22392D01*
X52390Y-22392D02*
X52390Y-21792D01*
X52352Y-21878D01*
X52314Y-21935D01*
X52276Y-21964D01*
G54D20*
X47530Y-23304D02*
X47330Y-23304D01*
X47330Y-23261D01*
X47340Y-23235D01*
X47359Y-23218D01*
X47378Y-23210D01*
X47416Y-23201D01*
X47445Y-23201D01*
X47483Y-23210D01*
X47502Y-23218D01*
X47521Y-23235D01*
X47530Y-23261D01*
X47530Y-23304D01*
X47350Y-23132D02*
X47340Y-23124D01*
X47330Y-23107D01*
X47330Y-23064D01*
X47340Y-23047D01*
X47350Y-23038D01*
X47369Y-23030D01*
X47388Y-23030D01*
X47416Y-23038D01*
X47530Y-23141D01*
X47530Y-23030D01*
X47330Y-22918D02*
X47330Y-22901D01*
X47340Y-22884D01*
X47350Y-22875D01*
X47369Y-22867D01*
X47407Y-22858D01*
X47454Y-22858D01*
X47492Y-22867D01*
X47511Y-22875D01*
X47521Y-22884D01*
X47530Y-22901D01*
X47530Y-22918D01*
X47521Y-22935D01*
X47511Y-22944D01*
X47492Y-22952D01*
X47454Y-22961D01*
X47407Y-22961D01*
X47369Y-22952D01*
X47350Y-22944D01*
X47340Y-22935D01*
X47330Y-22918D01*
X47530Y-22687D02*
X47530Y-22789D01*
X47530Y-22738D02*
X47330Y-22738D01*
X47359Y-22755D01*
X47378Y-22772D01*
X47388Y-22789D01*
%LPC*%
G54D21*
X52300Y-27150D03*
X52300Y-27650D03*
X52300Y-28150D03*
X52300Y-28650D03*
X49800Y-28650D03*
X49800Y-28150D03*
X49800Y-27650D03*
X49800Y-27150D03*
X46800Y-26025D03*
X46800Y-26525D03*
X46800Y-27025D03*
X46800Y-27525D03*
X44300Y-27525D03*
X44300Y-27025D03*
X44300Y-26525D03*
X44300Y-26025D03*
G54D22*
X47700Y-28575D03*
X47700Y-29325D03*
X48800Y-27850D03*
X48800Y-28600D03*
X53125Y-29325D03*
X53125Y-28575D03*
X48650Y-23525D03*
X48650Y-22775D03*
X43050Y-26875D03*
X43050Y-26125D03*
G54D23*
X44575Y-28725D03*
X43825Y-28725D03*
X43900Y-24775D03*
X43150Y-24775D03*
G54D24*
X49803Y-22353D03*
X54046Y-26596D03*
G54D25*
X54225Y-29675D03*
G54D26*
X54225Y-28675D03*
X54225Y-27675D03*
G54D27*
X45000Y-19050D03*
X55000Y-19050D03*
G54D28*
X56550Y-31700D03*
G54D29*
X56550Y-29700D03*
G54D28*
X56550Y-27250D03*
G54D29*
X56550Y-25250D03*
G54D30*
X44725Y-31525D03*
X45709Y-31525D03*
X43740Y-31525D03*
G54D31*
X46732Y-30225D03*
X42717Y-30225D03*
G54D30*
X50150Y-31525D03*
X51134Y-31525D03*
X49165Y-31525D03*
G54D31*
X52157Y-30225D03*
X48142Y-30225D03*
G54D24*
X48975Y-20825D03*
X49975Y-20825D03*
G54D32*
X50975Y-20825D03*
G54D33*
X47850Y-22774D03*
X47850Y-23325D03*
M02*
