G04 (created by PCBNEW (2013-07-07 BZR 4022)-stable) date 26/09/2015 15:02:13*
%MOIN*%
G04 Gerber Fmt 3.4, Leading zero omitted, Abs format*
%FSLAX34Y34*%
G01*
G70*
G90*
G04 APERTURE LIST*
%ADD10C,0.00393701*%
%ADD11R,0.045X0.02*%
%ADD12R,0.055X0.035*%
%ADD13R,0.035X0.055*%
%ADD14C,0.07*%
%ADD15R,0.06X0.06*%
%ADD16C,0.06*%
%ADD17C,0.0905512*%
%ADD18R,0.1X0.1*%
%ADD19C,0.1*%
%ADD20C,0.0787402*%
%ADD21O,0.0787402X0.0866142*%
%ADD22R,0.07X0.07*%
%ADD23R,0.0275591X0.023622*%
G04 APERTURE END LIST*
G54D10*
G54D11*
X52300Y-27150D03*
X52300Y-27650D03*
X52300Y-28150D03*
X52300Y-28650D03*
X49800Y-28650D03*
X49800Y-28150D03*
X49800Y-27650D03*
X49800Y-27150D03*
X46800Y-26025D03*
X46800Y-26525D03*
X46800Y-27025D03*
X46800Y-27525D03*
X44300Y-27525D03*
X44300Y-27025D03*
X44300Y-26525D03*
X44300Y-26025D03*
G54D12*
X47700Y-28575D03*
X47700Y-29325D03*
X48800Y-27850D03*
X48800Y-28600D03*
X53125Y-29325D03*
X53125Y-28575D03*
X48650Y-23525D03*
X48650Y-22775D03*
X43050Y-26875D03*
X43050Y-26125D03*
G54D13*
X44575Y-28725D03*
X43825Y-28725D03*
X43900Y-24775D03*
X43150Y-24775D03*
G54D14*
X49803Y-22353D03*
X54046Y-26596D03*
G54D15*
X54225Y-29675D03*
G54D16*
X54225Y-28675D03*
X54225Y-27675D03*
G54D17*
X45000Y-19050D03*
X55000Y-19050D03*
G54D18*
X56550Y-31700D03*
G54D19*
X56550Y-29700D03*
G54D18*
X56550Y-27250D03*
G54D19*
X56550Y-25250D03*
G54D20*
X44725Y-31525D03*
X45709Y-31525D03*
X43740Y-31525D03*
G54D21*
X46732Y-30225D03*
X42717Y-30225D03*
G54D20*
X50150Y-31525D03*
X51134Y-31525D03*
X49165Y-31525D03*
G54D21*
X52157Y-30225D03*
X48142Y-30225D03*
G54D14*
X48975Y-20825D03*
X49975Y-20825D03*
G54D22*
X50975Y-20825D03*
G54D23*
X47850Y-22774D03*
X47850Y-23325D03*
M02*
