G04 (created by PCBNEW (2013-07-07 BZR 4022)-stable) date 26/09/2015 15:02:13*
%MOIN*%
G04 Gerber Fmt 3.4, Leading zero omitted, Abs format*
%FSLAX34Y34*%
G01*
G70*
G90*
G04 APERTURE LIST*
%ADD10C,0.00393701*%
%ADD11R,0.045X0.02*%
%ADD12R,0.055X0.035*%
%ADD13R,0.035X0.055*%
%ADD14C,0.07*%
%ADD15R,0.06X0.06*%
%ADD16C,0.06*%
%ADD17R,0.1X0.1*%
%ADD18C,0.1*%
%ADD19C,0.0787402*%
%ADD20R,0.07X0.07*%
%ADD21R,0.0275591X0.023622*%
%ADD22C,0.045*%
%ADD23C,0.035*%
%ADD24C,0.024*%
%ADD25C,0.01*%
G04 APERTURE END LIST*
G54D10*
G54D11*
X52300Y-27150D03*
X52300Y-27650D03*
X52300Y-28150D03*
X52300Y-28650D03*
X49800Y-28650D03*
X49800Y-28150D03*
X49800Y-27650D03*
X49800Y-27150D03*
X46800Y-26025D03*
X46800Y-26525D03*
X46800Y-27025D03*
X46800Y-27525D03*
X44300Y-27525D03*
X44300Y-27025D03*
X44300Y-26525D03*
X44300Y-26025D03*
G54D12*
X47700Y-28575D03*
X47700Y-29325D03*
X48800Y-27850D03*
X48800Y-28600D03*
X53125Y-29325D03*
X53125Y-28575D03*
X48650Y-23525D03*
X48650Y-22775D03*
X43050Y-26875D03*
X43050Y-26125D03*
G54D13*
X44575Y-28725D03*
X43825Y-28725D03*
X43900Y-24775D03*
X43150Y-24775D03*
G54D14*
X49803Y-22353D03*
X54046Y-26596D03*
G54D15*
X54225Y-29675D03*
G54D16*
X54225Y-28675D03*
X54225Y-27675D03*
G54D17*
X56550Y-31700D03*
G54D18*
X56550Y-29700D03*
G54D17*
X56550Y-27250D03*
G54D18*
X56550Y-25250D03*
G54D19*
X44725Y-31525D03*
X45709Y-31525D03*
X43740Y-31525D03*
X50150Y-31525D03*
X51134Y-31525D03*
X49165Y-31525D03*
G54D14*
X48975Y-20825D03*
X49975Y-20825D03*
G54D20*
X50975Y-20825D03*
G54D21*
X47850Y-22774D03*
X47850Y-23325D03*
G54D22*
X44725Y-24825D03*
X50950Y-27150D03*
X45600Y-26075D03*
X48700Y-29325D03*
X43700Y-25575D03*
X51200Y-27850D03*
X45550Y-28200D03*
G54D23*
X46200Y-27925D03*
X43550Y-27575D03*
G54D24*
X44575Y-28725D02*
X46575Y-28725D01*
X51150Y-24475D02*
X53550Y-24475D01*
X50825Y-24475D02*
X51150Y-24475D01*
X46575Y-28725D02*
X50825Y-24475D01*
X54225Y-27675D02*
X55550Y-27675D01*
X55550Y-27675D02*
X55975Y-27250D01*
X55975Y-27250D02*
X56550Y-27250D01*
X49975Y-20825D02*
X49975Y-20325D01*
X55975Y-27250D02*
X56550Y-27250D01*
X55450Y-26725D02*
X55975Y-27250D01*
X55450Y-25225D02*
X55450Y-26725D01*
X54700Y-24475D02*
X55450Y-25225D01*
X53550Y-24475D02*
X54700Y-24475D01*
X52775Y-23700D02*
X53550Y-24475D01*
X52775Y-20825D02*
X52775Y-23700D01*
X51925Y-19975D02*
X52775Y-20825D01*
X50325Y-19975D02*
X51925Y-19975D01*
X49975Y-20325D02*
X50325Y-19975D01*
G54D25*
X47850Y-22774D02*
X47850Y-22725D01*
X47850Y-22725D02*
X48650Y-21925D01*
X48650Y-22775D02*
X48650Y-21925D01*
X48975Y-21600D02*
X48975Y-20825D01*
X48650Y-21925D02*
X48975Y-21600D01*
G54D24*
X53500Y-27950D02*
X52800Y-27250D01*
X54225Y-28675D02*
X53500Y-27950D01*
X52700Y-27150D02*
X52300Y-27150D01*
X52800Y-27250D02*
X52700Y-27150D01*
X43900Y-24775D02*
X44675Y-24775D01*
X44675Y-24775D02*
X44725Y-24825D01*
X48800Y-27850D02*
X48800Y-27675D01*
X49325Y-27150D02*
X49800Y-27150D01*
X48800Y-27675D02*
X49325Y-27150D01*
X49800Y-27150D02*
X50950Y-27150D01*
X46800Y-26025D02*
X45650Y-26025D01*
X45650Y-26025D02*
X45600Y-26075D01*
X47700Y-29325D02*
X48700Y-29325D01*
X43050Y-26125D02*
X43150Y-26125D01*
X43150Y-26125D02*
X43700Y-25575D01*
X53125Y-28575D02*
X53125Y-28450D01*
X52825Y-28150D02*
X52300Y-28150D01*
X53125Y-28450D02*
X52825Y-28150D01*
X52300Y-28150D02*
X51500Y-28150D01*
X51500Y-28150D02*
X51200Y-27850D01*
X49800Y-28150D02*
X50900Y-28150D01*
X50900Y-28150D02*
X51200Y-27850D01*
X49800Y-27650D02*
X51000Y-27650D01*
X51400Y-27650D02*
X51200Y-27850D01*
X51400Y-27650D02*
X52300Y-27650D01*
X51000Y-27650D02*
X51200Y-27850D01*
X44300Y-27525D02*
X44875Y-27525D01*
X44875Y-27525D02*
X45550Y-28200D01*
X54225Y-29675D02*
X54525Y-29675D01*
X54525Y-29675D02*
X56550Y-31700D01*
G54D25*
X48650Y-23525D02*
X48650Y-25275D01*
X47400Y-26525D02*
X46800Y-26525D01*
X48650Y-25275D02*
X47400Y-26525D01*
X46800Y-27525D02*
X46350Y-27525D01*
X46350Y-27525D02*
X46200Y-27675D01*
X46200Y-27925D02*
X46200Y-27675D01*
G54D24*
X46800Y-27025D02*
X47550Y-27025D01*
X49803Y-24771D02*
X49803Y-22353D01*
X47550Y-27025D02*
X49803Y-24771D01*
X50975Y-20825D02*
X50975Y-21700D01*
X50321Y-22353D02*
X49803Y-22353D01*
X50975Y-21700D02*
X50321Y-22353D01*
G54D25*
X53125Y-29325D02*
X52750Y-29325D01*
X52300Y-28875D02*
X52300Y-28650D01*
X52750Y-29325D02*
X52300Y-28875D01*
X48800Y-28600D02*
X47725Y-28600D01*
X47725Y-28600D02*
X47700Y-28575D01*
X48800Y-28600D02*
X49200Y-28600D01*
X49250Y-28650D02*
X49800Y-28650D01*
X49200Y-28600D02*
X49250Y-28650D01*
X49750Y-28600D02*
X49800Y-28650D01*
X43825Y-28725D02*
X43600Y-28725D01*
X43050Y-27725D02*
X43050Y-26875D01*
X43050Y-28175D02*
X43050Y-27725D01*
X43600Y-28725D02*
X43050Y-28175D01*
X43050Y-26875D02*
X43550Y-26875D01*
X43900Y-26525D02*
X44300Y-26525D01*
X43550Y-26875D02*
X43900Y-26525D01*
X47850Y-23325D02*
X47850Y-23675D01*
X44300Y-25775D02*
X44300Y-26025D01*
X44650Y-25425D02*
X44300Y-25775D01*
X46100Y-25425D02*
X44650Y-25425D01*
X47850Y-23675D02*
X46100Y-25425D01*
X43150Y-24775D02*
X42625Y-24775D01*
X44725Y-30600D02*
X43575Y-29450D01*
X43575Y-29450D02*
X43200Y-29450D01*
X43200Y-29450D02*
X42275Y-28525D01*
X42275Y-28525D02*
X42275Y-25550D01*
X44725Y-30600D02*
X44725Y-31525D01*
X42275Y-25125D02*
X42275Y-25550D01*
X42625Y-24775D02*
X42275Y-25125D01*
X44300Y-27025D02*
X44100Y-27025D01*
X44100Y-27025D02*
X43550Y-27575D01*
M02*
